{
    "asset" : {
        "generator" : "Khronos glTF Blender I/O v1.1.46",
        "version" : "2.0"
    },
    "scene" : 0,
    "scenes" : [
        {
            "name" : "Scene",
            "nodes" : [
                0,
                1
            ]
        }
    ],
    "nodes" : [
        {
            "mesh" : 0,
            "name" : "glass",
            "rotation" : [
                0.7071068286895752,
                0,
                0,
                0.7071067094802856
            ],
            "translation" : [
                27.34349822998047,
                -5.957471512374468e-05,
                443.4000549316406
            ]
        },
        {
            "mesh" : 1,
            "name" : "Baked_building",
            "rotation" : [
                1,
                0,
                0,
                -1.3435884227419592e-07
            ],
            "translation" : [
                32.2625732421875,
                464.0469970703125,
                1.5704361200332642
            ]
        }
    ],
    "materials" : [
        {
            "alphaMode" : "BLEND",
            "emissiveFactor" : [
                0,
                0,
                0
            ],
            "name" : "Material #41",
            "pbrMetallicRoughness" : {
                "baseColorFactor" : [
                    0.43529415130615234,
                    0.5607843399047852,
                    0.7450980544090271,
                    0.10000002384185791
                ],
                "metallicFactor" : 0,
                "roughnessFactor" : 0
            }
        },
        {
            "emissiveFactor" : [
                0,
                0,
                0
            ],
            "name" : "Material #1051",
            "pbrMetallicRoughness" : {
                "baseColorTexture" : {
                    "index" : 0,
                    "texCoord" : 0
                },
                "metallicFactor" : 0,
                "roughnessFactor" : 1
            }
        }
    ],
    "meshes" : [
        {
            "name" : "glass",
            "primitives" : [
                {
                    "attributes" : {
                        "POSITION" : 0,
                        "NORMAL" : 1,
                        "TEXCOORD_0" : 2
                    },
                    "indices" : 3,
                    "material" : 0
                }
            ]
        },
        {
            "name" : "Baked_building",
            "primitives" : [
                {
                    "attributes" : {
                        "POSITION" : 4,
                        "NORMAL" : 5,
                        "TEXCOORD_0" : 6
                    },
                    "indices" : 7,
                    "material" : 1
                }
            ]
        }
    ],
    "textures" : [
        {
            "source" : 0
        }
    ],
    "images" : [
        {
            "mimeType" : "image/jpeg",
            "name" : "Combined_Diffuse-AO",
            "uri" : "Combined_Diffuse-AO.jpg"
        }
    ],
    "accessors" : [
        {
            "bufferView" : 0,
            "componentType" : 5126,
            "count" : 1584,
            "max" : [
                374.61199951171875,
                517.9124145507812,
                -34.65730285644531
            ],
            "min" : [
                -360.1276550292969,
                -1281.754150390625,
                -788.0849609375
            ],
            "type" : "VEC3"
        },
        {
            "bufferView" : 1,
            "componentType" : 5126,
            "count" : 1584,
            "type" : "VEC3"
        },
        {
            "bufferView" : 2,
            "componentType" : 5126,
            "count" : 1584,
            "type" : "VEC2"
        },
        {
            "bufferView" : 3,
            "componentType" : 5123,
            "count" : 1584,
            "type" : "SCALAR"
        },
        {
            "bufferView" : 4,
            "componentType" : 5126,
            "count" : 19413,
            "max" : [
                374.86236572265625,
                464.0469970703125,
                1027.390869140625
            ],
            "min" : [
                -374.86236572265625,
                -464.0469970703125,
                -1027.390869140625
            ],
            "type" : "VEC3"
        },
        {
            "bufferView" : 5,
            "componentType" : 5126,
            "count" : 19413,
            "type" : "VEC3"
        },
        {
            "bufferView" : 6,
            "componentType" : 5126,
            "count" : 19413,
            "type" : "VEC2"
        },
        {
            "bufferView" : 7,
            "componentType" : 5123,
            "count" : 19413,
            "type" : "SCALAR"
        }
    ],
    "bufferViews" : [
        {
            "buffer" : 0,
            "byteLength" : 19008,
            "byteOffset" : 0
        },
        {
            "buffer" : 0,
            "byteLength" : 19008,
            "byteOffset" : 19008
        },
        {
            "buffer" : 0,
            "byteLength" : 12672,
            "byteOffset" : 38016
        },
        {
            "buffer" : 0,
            "byteLength" : 3168,
            "byteOffset" : 50688
        },
        {
            "buffer" : 0,
            "byteLength" : 232956,
            "byteOffset" : 53856
        },
        {
            "buffer" : 0,
            "byteLength" : 232956,
            "byteOffset" : 286812
        },
        {
            "buffer" : 0,
            "byteLength" : 155304,
            "byteOffset" : 519768
        },
        {
            "buffer" : 0,
            "byteLength" : 38826,
            "byteOffset" : 675072
        }
    ],
    "buffers" : [
        {
            "byteLength" : 713900,
            "uri" : "House.bin"
        }
    ]
}
